<?xml version="1.0" standalone="no"?>
<!DOCTYPE svg PUBLIC "-//W3C//DTD SVG 20010904//EN"
 "http://www.w3.org/TR/2001/REC-SVG-20010904/DTD/svg10.dtd">
<svg version="1.0" xmlns="http://www.w3.org/2000/svg"
 width="920.000000pt" height="920.000000pt" viewBox="0 0 920.000000 920.000000"
 preserveAspectRatio="xMidYMid meet">

<g transform="translate(0.000000,920.000000) scale(0.100000,-0.100000)"
fill="#000000" stroke="none">
<path d="M6115 8456 c-63 -20 -97 -41 -141 -88 -68 -71 -89 -120 -89 -213 1
-139 -13 -123 505 -640 l460 -460 -1635 -1635 c-931 -932 -1639 -1647 -1645
-1663 -15 -41 -12 -93 6 -130 16 -32 535 -561 607 -619 21 -17 54 -34 73 -38
84 -19 -11 -108 1744 1646 899 899 1640 1634 1645 1634 6 0 214 -204 464 -454
319 -319 467 -461 500 -477 71 -36 183 -39 254 -6 71 32 126 83 163 149 l29
53 3 1347 c2 1345 2 1347 -19 1402 -25 68 -94 142 -164 176 l-50 25 -1335 2
c-1058 1 -1343 -1 -1375 -11z"/>
<path d="M1341 7814 c-496 -77 -952 -467 -1115 -954 -77 -229 -71 -31 -71
-2530 0 -2107 1 -2240 18 -2330 55 -292 180 -524 402 -745 221 -222 453 -347
745 -402 90 -17 223 -18 2335 -18 2494 0 2287 -5 2515 67 412 131 779 499 914
917 65 200 66 220 66 1202 0 864 -1 885 -20 917 -41 67 -61 72 -295 72 -191 0
-213 -2 -242 -20 -18 -10 -40 -31 -50 -47 -17 -25 -18 -82 -24 -918 -6 -988
-2 -937 -75 -1093 -90 -195 -262 -351 -471 -426 l-88 -31 -2200 -3 c-2456 -3
-2268 -8 -2431 68 -168 78 -305 211 -384 375 -88 181 -81 -31 -78 2450 l3
2200 31 88 c92 257 303 453 566 524 58 16 203 18 1908 23 1757 5 1847 6 1873
23 16 10 37 32 47 50 18 29 20 51 20 242 0 234 -5 254 -72 295 -33 20 -54 20
-1883 19 -1564 -1 -1865 -3 -1944 -15z"/>
</g>
</svg>
