<?xml version="1.0" standalone="no"?>
<!DOCTYPE svg PUBLIC "-//W3C//DTD SVG 20010904//EN"
 "http://www.w3.org/TR/2001/REC-SVG-20010904/DTD/svg10.dtd">
<svg version="1.0" xmlns="http://www.w3.org/2000/svg"
 width="106.000000pt" height="93.000000pt" viewBox="0 0 106.000000 93.000000"
 preserveAspectRatio="xMidYMid meet">

<g transform="translate(0.000000,93.000000) scale(0.100000,-0.100000)"
fill="#000000" stroke="none">
<path d="M237 702 l-227 -227 223 -223 c122 -122 227 -222 233 -222 6 0 21 11
34 25 l24 26 -192 192 c-106 106 -192 197 -192 202 0 5 87 96 192 202 l193
193 -30 30 -30 30 -228 -228z"/>
<path d="M825 900 l-29 -31 55 -55 55 -55 57 3 58 3 -84 83 -83 82 -29 -30z"/>
<path d="M579 537 c-56 -43 -50 -142 11 -167 15 -6 53 -10 86 -8 l59 3 3 43
c3 37 1 42 -17 42 -16 0 -21 -6 -21 -25 0 -23 -4 -25 -43 -25 -51 0 -67 13
-67 55 0 44 16 55 82 55 51 0 58 2 58 20 0 18 -7 20 -67 20 -38 0 -75 -6 -84
-13z"/>
<path d="M810 530 c0 -16 7 -20 35 -20 l35 0 0 -75 c0 -73 1 -75 25 -75 24 0
25 2 25 75 l0 75 35 0 c28 0 35 4 35 20 0 19 -7 20 -95 20 -88 0 -95 -1 -95
-20z"/>
<path d="M852 137 l-52 -53 30 -29 31 -29 82 82 82 82 -60 0 c-60 0 -61 -1
-113 -53z"/>
</g>
</svg>
